<mxfile host="Electron" modified="2024-05-30T11:20:14.913Z" agent="Mozilla/5.0 (Macintosh; Intel Mac OS X 10_15_7) AppleWebKit/537.36 (KHTML, like Gecko) draw.io/21.6.8 Chrome/114.0.5735.289 Electron/25.5.0 Safari/537.36" etag="GAbQCWVmz10Vn-7HTHee" version="21.6.8" type="device" pages="2">
  <diagram name="文本分类V1.0" id="A8A5gv7qC4sBh5OZPux5">
    <mxGraphModel dx="1306" dy="894" grid="1" gridSize="10" guides="1" tooltips="1" connect="1" arrows="1" fold="1" page="1" pageScale="1" pageWidth="827" pageHeight="1169" math="0" shadow="0">
      <root>
        <mxCell id="0" />
        <mxCell id="1" parent="0" />
        <mxCell id="5Nt6OKOV-KPIU4XACH0e-3" style="edgeStyle=orthogonalEdgeStyle;rounded=0;orthogonalLoop=1;jettySize=auto;html=1;exitX=1;exitY=0.5;exitDx=0;exitDy=0;" edge="1" parent="1" source="5Nt6OKOV-KPIU4XACH0e-1" target="5Nt6OKOV-KPIU4XACH0e-2">
          <mxGeometry relative="1" as="geometry" />
        </mxCell>
        <mxCell id="5Nt6OKOV-KPIU4XACH0e-1" value="文档影像件" style="rounded=1;whiteSpace=wrap;html=1;" vertex="1" parent="1">
          <mxGeometry x="30" y="260" width="80" height="120" as="geometry" />
        </mxCell>
        <mxCell id="5Nt6OKOV-KPIU4XACH0e-5" style="edgeStyle=orthogonalEdgeStyle;rounded=0;orthogonalLoop=1;jettySize=auto;html=1;exitX=1;exitY=0.5;exitDx=0;exitDy=0;entryX=0;entryY=0.5;entryDx=0;entryDy=0;" edge="1" parent="1" source="5Nt6OKOV-KPIU4XACH0e-2" target="5Nt6OKOV-KPIU4XACH0e-4">
          <mxGeometry relative="1" as="geometry" />
        </mxCell>
        <mxCell id="5Nt6OKOV-KPIU4XACH0e-2" value="OCR模型" style="ellipse;whiteSpace=wrap;html=1;aspect=fixed;" vertex="1" parent="1">
          <mxGeometry x="150" y="280" width="80" height="80" as="geometry" />
        </mxCell>
        <mxCell id="5Nt6OKOV-KPIU4XACH0e-7" style="edgeStyle=orthogonalEdgeStyle;rounded=0;orthogonalLoop=1;jettySize=auto;html=1;exitX=1;exitY=0.5;exitDx=0;exitDy=0;" edge="1" parent="1" source="5Nt6OKOV-KPIU4XACH0e-4" target="5Nt6OKOV-KPIU4XACH0e-6">
          <mxGeometry relative="1" as="geometry" />
        </mxCell>
        <mxCell id="5Nt6OKOV-KPIU4XACH0e-4" value="内容文本" style="rounded=1;whiteSpace=wrap;html=1;" vertex="1" parent="1">
          <mxGeometry x="270" y="260" width="80" height="120" as="geometry" />
        </mxCell>
        <mxCell id="5Nt6OKOV-KPIU4XACH0e-9" style="edgeStyle=orthogonalEdgeStyle;rounded=0;orthogonalLoop=1;jettySize=auto;html=1;exitX=1;exitY=0.5;exitDx=0;exitDy=0;entryX=0;entryY=0.5;entryDx=0;entryDy=0;" edge="1" parent="1" source="5Nt6OKOV-KPIU4XACH0e-6" target="5Nt6OKOV-KPIU4XACH0e-8">
          <mxGeometry relative="1" as="geometry" />
        </mxCell>
        <mxCell id="5Nt6OKOV-KPIU4XACH0e-6" value="文本分类模型" style="ellipse;whiteSpace=wrap;html=1;aspect=fixed;" vertex="1" parent="1">
          <mxGeometry x="390" y="280" width="80" height="80" as="geometry" />
        </mxCell>
        <mxCell id="5Nt6OKOV-KPIU4XACH0e-8" value="文档类型" style="rounded=1;whiteSpace=wrap;html=1;" vertex="1" parent="1">
          <mxGeometry x="510" y="260" width="80" height="120" as="geometry" />
        </mxCell>
      </root>
    </mxGraphModel>
  </diagram>
  <diagram id="oClje8w69Z3-JXSfNWT4" name="对码V1.0">
    <mxGraphModel dx="1306" dy="894" grid="1" gridSize="10" guides="1" tooltips="1" connect="1" arrows="1" fold="1" page="1" pageScale="1" pageWidth="827" pageHeight="1169" math="0" shadow="0">
      <root>
        <mxCell id="0" />
        <mxCell id="1" parent="0" />
      </root>
    </mxGraphModel>
  </diagram>
</mxfile>
